<svg width="6" height="8" viewBox="0 0 16 20" fill="none" xmlns="http://www.w3.org/2000/svg"><path d="M2.308 19.5c-.499 0-.925-.177-1.278-.53a1.741 1.741 0 0 1-.53-1.278V8.308c0-.499.177-.925.53-1.278.353-.353.779-.53 1.278-.53H3.5v-2c0-1.249.438-2.31 1.313-3.186C5.69.438 6.751 0 8 0c1.249 0 2.31.438 3.187 1.314.875.875 1.313 1.937 1.313 3.186v2h1.192c.499 0 .925.177 1.278.53.353.353.53.779.53 1.278v9.384c0 .499-.177.925-.53 1.278-.353.353-.779.53-1.278.53H2.308Zm0-1.5h11.384a.3.3 0 0 0 .221-.087.3.3 0 0 0 .087-.22V8.307a.3.3 0 0 0-.087-.221.3.3 0 0 0-.22-.087H2.307a.3.3 0 0 0-.221.087.3.3 0 0 0-.087.22v9.385a.3.3 0 0 0 .087.221.3.3 0 0 0 .22.087ZM8 14.75c.486 0 .899-.17 1.24-.51.34-.341.51-.754.51-1.24s-.17-.899-.51-1.24c-.341-.34-.754-.51-1.24-.51s-.9.17-1.24.51c-.34.341-.51.754-.51 1.24s.17.899.51 1.24c.34.34.754.51 1.24.51ZM5 6.5h6v-2c0-.833-.292-1.542-.875-2.125A2.893 2.893 0 0 0 8 1.5c-.833 0-1.542.292-2.125.875A2.893 2.893 0 0 0 5 4.5v2Z" fill="#fff"/></svg>