<svg height="49" style="enable-background:new 0 0 44 49" width="44" xml:space="preserve" xmlns="http://www.w3.org/2000/svg"><path d="M35 0h8c.6 0 1 .4 1 1v29c0 .6-.5 1-1 1h-8c-.6 0-1-.4-1-1V1c0-.6.5-1 1-1zm7 2h-6v27h6V2zM18.2 2h2.1c2.7.1 5.9.6 8.2.9 1.1.2 2.1.3 2.7.3.5 0 .9.5.9 1v23.7c0 .4-.3.8-.6.9l-.5.2c-2.3.8-7 2.6-9.4 5.2-2.6 2.7-3.8 6.4-3.8 10.8-.1 1.4-.9 4-3.6 4-.5 0-1.1-.1-1.8-.3-.1 0-.3-.1-.4-.2-1.1-1.1-4.7-7.6-1.3-17.5H5c-.4 0-3.4-.1-4.6-3.9-.2-.5-1-2.6.8-5.2-.5-.9-1.3-2.8-.4-4.8.1-.2.5-1.4 1.3-2.2-.5-1.7-.4-4.5 2-6.5.1-1.2.6-4 3-5 .3 0 4.5-1.4 11.1-1.4zM30 5.1c-.5-.1-1.2-.2-1.9-.3-2.3-.3-5.4-.7-8-.9-7.4-.2-12.2 1.4-12.3 1.4-1.7.7-1.7 3.6-1.7 3.6 0 .3-.2.6-.4.8-2.8 2-1.5 5-1.5 5.2.2.5 0 1-.5 1.3-.4.2-.9 1.1-1.1 1.6-.8 1.8.5 3.5.5 3.5.3.4.3.9 0 1.3-1.7 2-1 3.6-1 3.7 0 0 0 .1.1.1C3 28.9 4.8 29 5 29h7.2c.3 0 .6.2.8.4.2.3.2.6.1.9-3.5 9.1-.7 15.3.2 16.6.3.1.6.1.8.1 1.4 0 1.5-1.8 1.5-2 0-4.9 1.4-9 4.3-12.1 2.7-2.9 7.5-4.7 10-5.6V5.1zM39 4c.6 0 1 .5 1 1 0 .6-.4 1-1 1s-1-.5-1-1 .5-1 1-1z" fill="#fff"/></svg>