<svg width="24" height="24" fill="none" xmlns="http://www.w3.org/2000/svg"><mask id="a" style="mask-type:alpha" maskUnits="userSpaceOnUse" x="0" y="0" width="24" height="24"><path fill="#D9D9D9" d="M0 0h24v24H0z"/></mask><g mask="url(#a)"><path d="M6.308 20h11.384a.3.3 0 0 0 .221-.087.3.3 0 0 0 .087-.22v-9.385a.3.3 0 0 0-.087-.222.3.3 0 0 0-.22-.086H6.307a.3.3 0 0 0-.221.086.3.3 0 0 0-.087.222v9.384a.3.3 0 0 0 .087.221.3.3 0 0 0 .22.087ZM12 16.75c.486 0 .899-.17 1.24-.51.34-.341.51-.754.51-1.24s-.17-.899-.51-1.24c-.341-.34-.754-.51-1.24-.51s-.9.17-1.24.51c-.34.341-.51.754-.51 1.24s.17.899.51 1.24c.34.34.754.51 1.24.51ZM6.308 21.5c-.499 0-.925-.177-1.278-.53a1.741 1.741 0 0 1-.53-1.278v-9.384c0-.499.177-.925.53-1.278.353-.353.779-.53 1.278-.53H13.5v-2c0-1.249.438-2.31 1.313-3.186C15.69 2.438 16.752 2 18 2c1.249 0 2.31.438 3.186 1.314.876.875 1.314 1.937 1.314 3.186H21c0-.833-.292-1.542-.875-2.125A2.893 2.893 0 0 0 18 3.5c-.833 0-1.542.292-2.125.875A2.893 2.893 0 0 0 15 6.5v2h2.692c.499 0 .925.177 1.278.53.353.353.53.779.53 1.278v9.384c0 .499-.177.925-.53 1.278-.353.353-.779.53-1.278.53H6.308Z" fill="#fff"/></g></svg>